# xmcd
#
# Track frame offsets:
#	150
#	19987
#	38130
#	61325
#	85542
#	105430
#	126382
#	148220
#	172087
#	192055
#	213392
#	234735
#	254705
#	279017
#
# Disc length: 4044 seconds
#
# Revision: 6
# Processed by: cddbd v1.5.2PL0 Copyright (c) Steve Scherf et al.
# Submitted via: EZCDAudioConverter 8.0.2.1
#
DISCID=c90fca0e
DTITLE=信.乐团 - 挑信 新歌＋精选 金选28首 Disc Two
DYEAR=2004
DGENRE=
TTITLE0=假如
TTITLE1=桂花巷
TTITLE2=千年之恋
TTITLE3=一了百了
TTITLE4=大惊小怪
TTITLE5=海阔天空
TTITLE6=我活着
TTITLE7=无可救药爱上你
TTITLE8=天亮
TTITLE9=Fallen Angel
TTITLE10=断了思念
TTITLE11=马车夫之恋
TTITLE12=没有你的夜
TTITLE13=因为有你
EXTD=
EXTT0=
EXTT1=
EXTT2=
EXTT3=
EXTT4=
EXTT5=
EXTT6=
EXTT7=
EXTT8=
EXTT9=
EXTT10=
EXTT11=
EXTT12=
EXTT13=
PLAYORDER=
